<svg width="69" height="69" viewBox="0 0 69 69" fill="none" xmlns="http://www.w3.org/2000/svg">
<circle cx="34.3085" cy="34.3085" r="34.3085" transform="matrix(1 0 0 -1 0.382935 68.6169)" fill="#ECEDF2"/>
<path d="M44.7891 15.8335H25.211C20.5843 15.8335 16.8336 19.5842 16.8336 24.2108V43.789C16.8336 48.4156 20.5843 52.1663 25.211 52.1663H44.7891C49.4158 52.1663 53.1664 48.4156 53.1664 43.789V24.2108C53.1664 19.5842 49.4158 15.8335 44.7891 15.8335Z" fill="url(#paint0_linear_181_418)"/>
<path d="M40.8594 23.0015C42.2386 23.0071 43.5598 23.5574 44.5352 24.5328C45.5105 25.5081 46.0608 26.8293 46.0664 28.2085V39.7914C46.0608 41.1706 45.5105 42.4918 44.5352 43.4671C43.5598 44.4425 42.2386 44.9928 40.8594 44.9984H29.1406C27.7613 44.9928 26.4401 44.4425 25.4648 43.4671C24.4895 42.4918 23.9391 41.1706 23.9336 39.7914V28.2085C23.9391 26.8293 24.4895 25.5081 25.4648 24.5328C26.4401 23.5574 27.7613 23.0071 29.1406 23.0015H40.8594ZM40.8594 20.5796H29.1406C24.9445 20.5796 21.5109 24.0171 21.5109 28.2093V39.7914C21.5109 43.9875 24.9484 47.421 29.1406 47.421H40.8594C45.0555 47.421 48.4891 43.9835 48.4891 39.7914V28.2085C48.4891 24.0125 45.0555 20.5789 40.8594 20.5789V20.5796Z" fill="white"/>
<path d="M35 29.479C35.8942 29.479 36.7683 29.7442 37.5118 30.2409C38.2553 30.7377 38.8347 31.4438 39.1769 32.2699C39.5191 33.0961 39.6086 34.0051 39.4342 34.8821C39.2598 35.7591 38.8292 36.5647 38.1969 37.197C37.5646 37.8293 36.759 38.2599 35.882 38.4343C35.005 38.6088 34.096 38.5192 33.2698 38.177C32.4437 37.8349 31.7376 37.2554 31.2408 36.5119C30.744 35.7684 30.4789 34.8943 30.4789 34.0001C30.4803 32.8015 30.9571 31.6524 31.8047 30.8048C32.6522 29.9572 33.8014 29.4805 35 29.479ZM35 27.0571C33.6268 27.0571 32.2844 27.4643 31.1427 28.2272C30.0009 28.9901 29.111 30.0745 28.5855 31.3431C28.06 32.6118 27.9225 34.0078 28.1904 35.3546C28.4583 36.7014 29.1196 37.9385 30.0906 38.9095C31.0616 39.8805 32.2987 40.5418 33.6455 40.8097C34.9923 41.0776 36.3883 40.9401 37.6569 40.4146C38.9256 39.8891 40.0099 38.9992 40.7728 37.8574C41.5357 36.7156 41.9429 35.3733 41.9429 34.0001C41.9429 32.1587 41.2115 30.3927 39.9094 29.0907C38.6073 27.7886 36.8414 27.0571 35 27.0571Z" fill="white"/>
<path d="M42.0945 28.3984C43.0036 28.3984 43.7406 27.6614 43.7406 26.7523C43.7406 25.8432 43.0036 25.1062 42.0945 25.1062C41.1854 25.1062 40.4484 25.8432 40.4484 26.7523C40.4484 27.6614 41.1854 28.3984 42.0945 28.3984Z" fill="white"/>
<defs>
<linearGradient id="paint0_linear_181_418" x1="40.6461" y1="53.6913" x2="29.3539" y2="14.3085" gradientUnits="userSpaceOnUse">
<stop stop-color="#FFDB73"/>
<stop offset="0.08" stop-color="#FDAD4E"/>
<stop offset="0.15" stop-color="#FB832E"/>
<stop offset="0.19" stop-color="#FA7321"/>
<stop offset="0.23" stop-color="#F6692F"/>
<stop offset="0.37" stop-color="#E84A5A"/>
<stop offset="0.48" stop-color="#E03675"/>
<stop offset="0.55" stop-color="#DD2F7F"/>
<stop offset="0.68" stop-color="#B43D97"/>
<stop offset="0.97" stop-color="#4D60D4"/>
<stop offset="1" stop-color="#4264DB"/>
</linearGradient>
</defs>
</svg>
