<svg width="69" height="69" viewBox="0 0 69 69" fill="none" xmlns="http://www.w3.org/2000/svg">
<circle cx="34.3085" cy="34.3085" r="34.3085" transform="matrix(1 0 0 -1 0.191406 68.6169)" fill="#ECEDF2"/>
<g clip-path="url(#clip0_181_416)">
<path d="M23.75 25.25H15V54H23.75V25.25Z" fill="#007BB5"/>
<path d="M45.0037 25.25C40 25.25 38.6125 26.89 37.5 29V25.25H28.75V54H37.5V37.75C37.5 35.25 37.5 32.75 41.875 32.75C46.25 32.75 46.25 35.25 46.25 37.75V54H55V37.75C55 30.25 53.75 25.25 45.0037 25.25Z" fill="#007BB5"/>
<path d="M19.375 22.75C21.7912 22.75 23.75 20.7912 23.75 18.375C23.75 15.9588 21.7912 14 19.375 14C16.9588 14 15 15.9588 15 18.375C15 20.7912 16.9588 22.75 19.375 22.75Z" fill="#007BB5"/>
</g>
<defs>
<clipPath id="clip0_181_416">
<rect width="40" height="40" fill="white" transform="translate(15 14)"/>
</clipPath>
</defs>
</svg>
