<svg width="70" height="69" viewBox="0 0 70 69" fill="none" xmlns="http://www.w3.org/2000/svg">
<circle cx="34.3085" cy="34.3085" r="34.3085" transform="matrix(1 0 0 -1 0.595703 68.6169)" fill="#ECEDF2"/>
<path d="M54.9912 21.5963C53.52 22.25 51.94 22.6913 50.2787 22.8875C51.9725 21.8725 53.2737 20.265 53.8875 18.35C52.3012 19.2888 50.5462 19.9738 48.6775 20.34C47.18 18.7463 45.0475 17.75 42.6862 17.75C38.155 17.75 34.4837 21.4225 34.4837 25.9537C34.4837 26.5962 34.555 27.2238 34.695 27.8237C27.8762 27.4812 21.8312 24.215 17.7837 19.2513C17.0787 20.4638 16.6737 21.8725 16.6737 23.3762C16.6737 26.2238 18.1225 28.7338 20.3225 30.2063C18.9787 30.1625 17.7137 29.795 16.6075 29.18C16.6062 29.2137 16.6062 29.25 16.6062 29.2825C16.6062 33.2587 19.4337 36.575 23.1875 37.3288C22.5 37.515 21.775 37.6162 21.0262 37.6162C20.4962 37.6162 19.9837 37.565 19.4837 37.47C20.5262 40.7275 23.5575 43.1 27.1462 43.1675C24.34 45.3675 20.8025 46.6813 16.9587 46.6813C16.2962 46.6813 15.6425 46.6425 15.0012 46.5662C18.6312 48.8912 22.9437 50.25 27.5775 50.25C42.6675 50.25 50.9212 37.7487 50.9212 26.9062C50.9212 26.5512 50.9112 26.1963 50.8962 25.8438C52.5 24.6875 53.89 23.2438 54.9912 21.5963Z" fill="#55ACEE"/>
</svg>
