<svg width="70" height="69" viewBox="0 0 70 69" fill="none" xmlns="http://www.w3.org/2000/svg">
<circle cx="34.3085" cy="34.3085" r="34.3085" transform="matrix(1 0 0 -1 0.787231 68.6169)" fill="#ECEDF2"/>
<path d="M35 32.3335C29.9825 32.3335 26.2655 32.5001 23.7907 32.6667C22.9927 32.8334 22.2738 33.1667 21.6787 33.6667C21.0837 34.1667 20.6767 34.8335 20.4873 35.5002C20.1357 37.0002 20 39.1669 20 42.1669C20 45.3335 20.1357 47.5002 20.4873 49.0002C20.6632 49.8335 21.0837 50.3334 21.6787 51.0001C22.2873 51.5001 22.952 51.8334 23.7365 51.8334C26.2248 52.1667 29.9825 52.3335 35 52.3335C40.0167 52.3335 43.775 52.1667 46.2633 51.8334C47.0483 51.8334 47.78 51.5001 48.375 51.0001C48.97 50.3334 49.3233 49.8335 49.5133 49.0002C49.865 47.5002 50 45.3335 50 42.1669C50 39.1669 49.865 37.0002 49.5133 35.5002C49.3367 34.8335 48.9833 34.1667 48.375 33.6667C47.78 33.1667 47.0483 32.8334 46.2633 32.6667C43.775 32.5001 40.0167 32.3335 35 32.3335Z" fill="#C0392B"/>
<path d="M35 30.6667C29.9825 30.6667 26.2655 30.8333 23.7907 31C22.9927 31.1667 22.2738 31.5 21.6787 32C21.0837 32.5 20.6767 33.1668 20.4873 33.8335C20.1357 35.3335 20 37.5001 20 40.5001C20 43.6668 20.1357 45.8334 20.4873 47.3334C20.6632 48.1667 21.0837 48.6667 21.6787 49.3333C22.2873 49.8333 22.952 50.1667 23.7365 50.1667C26.2248 50.5 29.9825 50.6667 35 50.6667C40.0167 50.6667 43.775 50.5 46.2633 50.1667C47.0483 50.1667 47.78 49.8333 48.375 49.3333C48.97 48.6667 49.3233 48.1667 49.5133 47.3334C49.865 45.8334 50 43.6668 50 40.5001C50 37.5001 49.865 35.3335 49.5133 33.8335C49.3367 33.1668 48.9833 32.5 48.375 32C47.78 31.5 47.0483 31.1667 46.2633 31C43.775 30.8333 40.0167 30.6667 35 30.6667Z" fill="#E74C3C"/>
<path d="M25.8333 15.6667L28.3333 24.0001V29.0001H30V24.0001L32.5 15.6667H30.8333L29.1666 21.2397L27.5 15.6667H25.8333ZM35.8333 19.0001C34.4533 19.0001 33.3333 20.1194 33.3333 21.5001V26.5001C33.3333 27.8807 34.4533 29.0001 35.8333 29.0001C37.2133 29.0001 38.3333 27.8807 38.3333 26.5001V21.5001C38.3333 20.1194 37.2133 19.0001 35.8333 19.0001ZM40 19.0001V19.5731V22.3334V26.9167C40 27.5536 40.06 28.0234 40.1566 28.3231C40.3116 28.7847 40.6983 29.0002 41.25 29.0001C41.8483 29.0002 42.6983 28.6281 43.3333 27.8542V28.2709V29.0001H45V19.0001H43.3333V26.5001V26.6564C42.9733 27.1931 42.355 27.4897 42.0316 27.4897C41.815 27.4897 41.7033 27.3477 41.6666 27.0731C41.655 27.0481 41.6666 26.8079 41.6666 26.3959V22.3334V19.5731V19.0001H40ZM35.8333 20.6667C36.2933 20.6667 36.6666 21.0399 36.6666 21.5001V26.5001C36.6666 26.9602 36.2933 27.3334 35.8333 27.3334C35.3733 27.3334 35 26.9602 35 26.5001V21.5001C35 21.0399 35.3733 20.6667 35.8333 20.6667Z" fill="#202020"/>
<path d="M29.1667 34H22.5V35.6667H29.1667V34Z" fill="#ECF0F1"/>
<path d="M26.6667 35.6667H25V47.3334H26.6667V35.6667Z" fill="#ECF0F1"/>
<path d="M28.3333 37.3333V37.8331V40.6666V45.1665C28.3333 45.8332 28.3936 46.3332 28.4896 46.6665C28.6453 46.9999 29.0323 47.3333 29.5833 47.3333C30.1823 47.3333 31.0318 46.8331 31.6666 46.1665V46.4999V47.3333H33.3333V37.3333H31.6666V44.8333V44.9999C31.3073 45.4999 30.688 45.8332 30.3646 45.8332C30.149 45.8332 30.036 45.6665 30 45.3331C29.988 45.3331 30 45 30 44.6666V40.6666V37.8331V37.3333H28.3333Z" fill="#ECF0F1"/>
<path d="M35 34V37.3333V47.3333H36.6667V46.6033V46.1867C37.3017 46.9617 38.1517 47.3333 38.75 47.3333C39.3017 47.3333 39.6883 47.1183 39.8433 46.6567C39.94 46.3567 40 45.8867 40 45.25V42.3333V39.4167C40 38.78 39.94 38.31 39.8433 38.01C39.6883 37.5483 39.3017 37.3333 38.75 37.3333C38.1517 37.3333 37.3017 37.705 36.6667 38.48V37.3333V34H35ZM37.9683 38.8433C38.185 38.8433 38.2967 38.985 38.3333 39.26C38.345 39.285 38.3333 39.525 38.3333 39.9367V42.3333V44.73C38.3333 45.1417 38.345 45.3817 38.3333 45.4067C38.2967 45.6817 38.185 45.8233 37.9683 45.8233C37.645 45.8233 37.0267 45.5267 36.6667 44.99V44.8333V39.6767C37.0267 39.14 37.645 38.8433 37.9683 38.8433Z" fill="#ECF0F1"/>
<path d="M44.1667 37.3333C42.7867 37.3333 41.6667 38.4533 41.6667 39.8333V44.8333C41.6667 46.2133 42.7867 47.3333 44.1667 47.3333C45.5467 47.3333 46.6667 46.2133 46.6667 44.8333V43.9999H45V44.8333C45 45.2933 44.6267 45.6666 44.1667 45.6666C43.7067 45.6666 43.3334 45.2933 43.3334 44.8333V43.9999V42.3333H45H46.6667V39.8333C46.6667 38.4533 45.5467 37.3333 44.1667 37.3333ZM44.1667 38.9999C44.6267 38.9999 45 39.3733 45 39.8333V40.6666H43.3334V39.8333C43.3334 39.3733 43.7067 38.9999 44.1667 38.9999Z" fill="#ECF0F1"/>
</svg>
