<svg width="28" height="16" viewBox="0 0 28 16" fill="none" xmlns="http://www.w3.org/2000/svg">
<path d="M2 3.05526H26C27.104 3.05526 28 2.37088 28 1.52763C28 0.684378 27.104 0 26 0H2C0.896 0 0 0.684378 0 1.52763C0 2.37088 0.896 3.05526 2 3.05526ZM26 6.11052H2C0.896 6.11052 0 6.79489 0 7.63814C0 8.4814 0.896 9.16577 2 9.16577H26C27.104 9.16577 28 8.4814 28 7.63814C28 6.79489 27.104 6.11052 26 6.11052ZM26 12.221H2C0.896 12.221 0 12.9054 0 13.7487C0 14.5919 0.896 15.2763 2 15.2763H26C27.104 15.2763 28 14.5919 28 13.7487C28 12.9054 27.104 12.221 26 12.221Z" fill="#ECEDF2"/>
</svg>
