<svg width="60" height="60" viewBox="0 0 60 60" fill="none" xmlns="http://www.w3.org/2000/svg">
<rect width="60" height="60" rx="30" fill="#013B6D"/>
<path d="M21.8331 23.1839H20.4521V30.3273H21.8331V23.1839Z" fill="#ECEDF2"/>
<path d="M48.1477 35.4448H47.9933H11.0112H10.8576C10.3847 35.4448 10 35.8312 10 36.3062C10 36.7764 10.3848 37.1589 10.8576 37.1589H25.2379H28.0727H28.0848H30.9234H30.9538H33.8052H48.1476C48.6175 37.1589 48.9999 36.7764 48.9999 36.3062C49 35.8312 48.6176 35.4448 48.1477 35.4448Z" fill="#ECEDF2"/>
<path d="M25.1631 27.0573H23.7822V30.3273H25.1631V27.0573Z" fill="#ECEDF2"/>
<path d="M18.507 26.2277H17.1216V30.3274H18.507V26.2277Z" fill="#ECEDF2"/>
<path d="M31.5122 37.7616L38.0968 47.7866H40.2273L33.6426 37.7616H31.5122Z" fill="#ECEDF2"/>
<path d="M28.4933 24.6204H27.1123V30.3274H28.4933V24.6204Z" fill="#ECEDF2"/>
<path d="M38.5478 23.1839H37.1631V30.3273H38.5478V23.1839Z" fill="#ECEDF2"/>
<path d="M35.2177 27.0573H33.8369V30.3273H35.2177V27.0573Z" fill="#ECEDF2"/>
<path d="M27.7716 43.0925V38.4863L24.7461 43.0925H27.7716Z" fill="#ECEDF2"/>
<path d="M25.4004 37.7616L18.8115 47.7866H20.9417L27.5263 37.7616H25.4004Z" fill="#ECEDF2"/>
<path d="M30.6221 37.7616H28.3743V47.7866H30.6221V37.7616Z" fill="#ECEDF2"/>
<path d="M31.8875 24.6204H30.5066V30.3274H31.8875V24.6204Z" fill="#ECEDF2"/>
<path d="M30.4769 9.98121C30.4769 9.44936 30.0295 9 29.4999 9C28.9703 9 28.5229 9.44936 28.5229 9.98121V11.5011H30.4769V9.98121Z" fill="#ECEDF2"/>
<path d="M47.692 34.8421V14.4119H11.3125V34.8422H47.692V34.8421ZM39.7126 15.9296H45.7233C45.8898 15.9296 46.0247 16.0646 46.0247 16.2309C46.0247 16.3974 45.8897 16.5323 45.7233 16.5323H39.7126C39.5461 16.5323 39.4112 16.3974 39.4112 16.2309C39.4112 16.0646 39.5462 15.9296 39.7126 15.9296ZM39.7126 17.2379H45.7233C45.8898 17.2379 46.0247 17.3728 46.0247 17.5392C46.0247 17.7057 45.8897 17.8406 45.7233 17.8406H39.7126C39.5461 17.8406 39.4112 17.7057 39.4112 17.5392C39.4112 17.3728 39.5462 17.2379 39.7126 17.2379ZM39.7126 18.9905H45.7233C45.8898 18.9905 46.0247 19.1253 46.0247 19.2918C46.0247 19.4582 45.8897 19.5932 45.7233 19.5932H39.7126C39.5461 19.5932 39.4112 19.4582 39.4112 19.2918C39.4112 19.1253 39.5462 18.9905 39.7126 18.9905ZM39.7126 20.3071H45.7233C45.8898 20.3071 46.0247 20.442 46.0247 20.6085C46.0247 20.7748 45.8897 20.9098 45.7233 20.9098H39.7126C39.5461 20.9098 39.4112 20.7748 39.4112 20.6085C39.4112 20.442 39.5462 20.3071 39.7126 20.3071ZM42.4808 25.9264V30.6288C42.4808 30.7952 42.3458 30.93 42.1795 30.93H40.1914C40.025 30.93 39.8901 30.7951 39.8901 30.6288V25.9264C39.8901 25.7599 40.0251 25.625 40.1914 25.625H42.1795C42.3458 25.625 42.4808 25.7599 42.4808 25.9264ZM36.5606 22.8827C36.5606 22.7163 36.6956 22.5814 36.8619 22.5814H38.8493C39.0158 22.5814 39.1507 22.7163 39.1507 22.8827V30.6289C39.1507 30.7953 39.0157 30.9301 38.8493 30.9301H36.8619C36.6955 30.9301 36.5606 30.7952 36.5606 30.6289V22.8827ZM33.2342 26.756C33.2342 26.5895 33.3691 26.4547 33.5355 26.4547H35.519C35.6855 26.4547 35.8203 26.5895 35.8203 26.756V30.6288C35.8203 30.7952 35.6854 30.93 35.519 30.93H33.5355C33.369 30.93 33.2342 30.7951 33.2342 30.6288V26.756ZM29.9038 24.3191C29.9038 24.1527 30.0387 24.0177 30.2051 24.0177H32.1886C32.3552 24.0177 32.49 24.1527 32.49 24.3191V30.6288C32.49 30.7952 32.3551 30.93 32.1886 30.93H30.2051C30.0386 30.93 29.9038 30.7951 29.9038 30.6288V24.3191ZM26.5097 24.3191C26.5097 24.1527 26.6447 24.0177 26.8111 24.0177H28.7946C28.9611 24.0177 29.096 24.1527 29.096 24.3191V30.6288C29.096 30.7952 28.9611 30.93 28.7946 30.93H26.8111C26.6446 30.93 26.5097 30.7951 26.5097 30.6288V24.3191ZM23.1796 26.756C23.1796 26.5895 23.3144 26.4547 23.4808 26.4547H25.4644C25.6309 26.4547 25.7657 26.5895 25.7657 26.756V30.6288C25.7657 30.7952 25.6308 30.93 25.4644 30.93H23.4808C23.3144 30.93 23.1796 30.7951 23.1796 30.6288V26.756ZM19.8493 22.8827C19.8493 22.7163 19.9843 22.5814 20.1507 22.5814H22.1343C22.3007 22.5814 22.4357 22.7163 22.4357 22.8827V30.6289C22.4357 30.7953 22.3007 30.9301 22.1343 30.9301H20.1507C19.9843 30.9301 19.8493 30.7952 19.8493 30.6289V22.8827ZM16.5191 25.9264C16.5191 25.7599 16.654 25.625 16.8204 25.625H18.8085C18.975 25.625 19.1098 25.7599 19.1098 25.9264V30.6288C19.1098 30.7952 18.975 30.93 18.8085 30.93H16.8204C16.654 30.93 16.5191 30.7951 16.5191 30.6288V25.9264ZM16.1151 31.4476H29.4999H42.881C43.0474 31.4476 43.1823 31.5825 43.1823 31.7489C43.1823 31.9155 43.0473 32.0502 42.881 32.0502H29.4999H16.1151C15.9486 32.0502 15.8138 31.9154 15.8138 31.7489C15.8139 31.5825 15.9486 31.4476 16.1151 31.4476Z" fill="#ECEDF2"/>
<path d="M41.8781 26.2277H40.4927V30.3274H41.8781V26.2277Z" fill="#ECEDF2"/>
<path d="M31.2246 43.0925H34.2926L31.2246 38.4214V43.0925Z" fill="#ECEDF2"/>
<path d="M10.8576 13.8092H11.0112H47.9933H48.1477C48.6176 13.8092 49 13.4267 49 12.9566C49 12.4943 48.6095 12.1039 48.1477 12.1039H30.7783H28.2216H10.8576C10.3847 12.1039 10 12.4864 10 12.9566C9.99991 13.4267 10.3847 13.8092 10.8576 13.8092Z" fill="#ECEDF2"/>
</svg>
