<svg width="14" height="14" viewBox="0 0 14 14" fill="none" xmlns="http://www.w3.org/2000/svg">
<g clip-path="url(#clip0_1222_31303)">
<path d="M6.51003 13.0699C5.99163 13.4037 5.3746 13.55 4.76151 13.4845C4.14843 13.419 3.57622 13.1457 3.14003 12.7099L2.76003 12.3299C2.59149 12.1595 2.49695 11.9296 2.49695 11.6899C2.49695 11.4503 2.59149 11.2203 2.76003 11.0499L4.36003 9.45991C4.5287 9.29198 4.75702 9.1977 4.99503 9.1977C5.23304 9.1977 5.46136 9.29198 5.63003 9.45991C5.8004 9.62846 6.03038 9.72299 6.27003 9.72299C6.50968 9.72299 6.73966 9.62846 6.91003 9.45991L9.46003 6.90991C9.62858 6.73954 9.72312 6.50956 9.72312 6.26991C9.72312 6.03026 9.62858 5.80028 9.46003 5.62991C9.2921 5.46124 9.19782 5.23292 9.19782 4.99491C9.19782 4.7569 9.2921 4.52858 9.46003 4.35991L11 2.75991C11.1704 2.59136 11.4004 2.49683 11.64 2.49683C11.8797 2.49683 12.1097 2.59136 12.28 2.75991L12.66 3.13991C13.1036 3.56995 13.3863 4.13911 13.4609 4.75241C13.5356 5.36571 13.3976 5.98606 13.07 6.50991C11.3263 9.09869 9.09881 11.3262 6.51003 13.0699Z" stroke="black" stroke-linecap="round" stroke-linejoin="round"/>
<path d="M7 0.5C6.14641 0.5 5.30117 0.668127 4.51256 0.994783C3.72394 1.32144 3.00739 1.80023 2.40381 2.40381C1.80022 3.00739 1.32144 3.72394 0.994783 4.51256C0.668128 5.30117 0.5 6.14641 0.5 7" stroke="black" stroke-linecap="round" stroke-linejoin="round"/>
<path d="M7 3C5.93913 3 4.92172 3.42143 4.17157 4.17157C3.42143 4.92172 3 5.93913 3 7" stroke="black" stroke-linecap="round" stroke-linejoin="round"/>
</g>
<defs>
<clipPath id="clip0_1222_31303">
<rect width="14" height="14" fill="white"/>
</clipPath>
</defs>
</svg>
